<?xml version="1.0" encoding="UTF-8"?><svg id="Calque_1" xmlns="http://www.w3.org/2000/svg" viewBox="0 0 331.06 40"><defs><style>.cls-1,.cls-2{fill:#fff;}.cls-2,.cls-3{fill-rule:evenodd;}</style></defs><path class="cls-1" d="m0,39.64V.36h7.86v32.59h8.08v6.7H0Z"/><path class="cls-1" d="m18.17,39.64V.36h15.71v7.59h-7.72v7.66h7.41v7.39h-7.41v9h8.24v7.66h-16.23Z"/><path class="cls-1" d="m46.34,40c-3.59,0-6.18-.89-7.77-2.68-1.58-1.79-2.37-4.63-2.37-8.53v-3.84h7.77v4.91c0,.91.13,1.62.4,2.14.28.51.77.76,1.45.76s1.21-.21,1.47-.62c.28-.42.42-1.1.42-2.05,0-1.21-.12-2.21-.36-3.01-.24-.82-.65-1.59-1.25-2.32-.58-.74-1.39-1.61-2.43-2.59l-3.53-3.35c-2.63-2.49-3.95-5.33-3.95-8.53s.77-5.9,2.32-7.66c1.56-1.76,3.82-2.63,6.76-2.63,3.6,0,6.15.96,7.66,2.88,1.52,1.92,2.28,4.84,2.28,8.75h-7.99v-2.7c0-.54-.16-.95-.47-1.25-.3-.3-.71-.45-1.23-.45-.62,0-1.09.18-1.38.54-.28.34-.42.79-.42,1.34s.15,1.15.45,1.79c.3.64.89,1.38,1.76,2.21l4.53,4.35c.91.86,1.74,1.78,2.5,2.75.76.95,1.37,2.07,1.83,3.35.46,1.26.69,2.81.69,4.64,0,3.69-.68,6.58-2.05,8.68-1.35,2.08-3.72,3.12-7.1,3.12Z"/><path class="cls-1" d="m68.84,39.64V.36h10.38c2.17,0,3.89.48,5.16,1.45,1.28.97,2.19,2.34,2.75,4.13s.83,3.91.83,6.38-.23,4.46-.69,6.23c-.46,1.76-1.29,3.12-2.48,4.08-1.18.97-2.85,1.45-5.02,1.45h-3.19v15.56h-7.72Zm7.72-22.61h.45c1.46,0,2.35-.41,2.68-1.23.33-.82.49-2.02.49-3.62,0-1.49-.16-2.63-.49-3.44-.31-.82-1.06-1.23-2.25-1.23h-.87v9.51Z"/><path class="cls-1" d="m90.45,39.64V.36h15.71v7.59h-7.72v7.66h7.41v7.39h-7.41v9h8.24v7.66h-16.23Z"/><path class="cls-1" d="m112.66,39.64V7.9h-4.67V.36h17.19v7.54h-4.67v31.74h-7.86Z"/><path class="cls-1" d="m127.01,39.64V.36h7.59v39.29h-7.59Z"/><path class="cls-1" d="m141.09,39.64V7.9h-4.66V.36h17.19v7.54h-4.66v31.74h-7.86Z"/><path class="cls-1" d="m165.13,40c-3.59,0-6.18-.89-7.77-2.68-1.58-1.79-2.37-4.63-2.37-8.53v-3.84h7.77v4.91c0,.91.13,1.62.4,2.14.28.51.77.76,1.45.76s1.21-.21,1.47-.62c.28-.42.42-1.1.42-2.05,0-1.21-.12-2.21-.36-3.01-.24-.82-.65-1.59-1.25-2.32-.58-.74-1.39-1.61-2.43-2.59l-3.53-3.35c-2.63-2.49-3.95-5.33-3.95-8.53s.77-5.9,2.32-7.66c1.56-1.76,3.82-2.63,6.76-2.63,3.6,0,6.15.96,7.66,2.88,1.52,1.92,2.28,4.84,2.28,8.75h-7.99v-2.7c0-.54-.16-.95-.47-1.25-.3-.3-.71-.45-1.23-.45-.62,0-1.09.18-1.38.54-.28.34-.42.79-.42,1.34s.15,1.15.45,1.79c.3.64.89,1.38,1.76,2.21l4.53,4.35c.91.86,1.74,1.78,2.5,2.75.76.95,1.37,2.07,1.83,3.35.46,1.26.69,2.81.69,4.64,0,3.69-.68,6.58-2.05,8.68-1.35,2.08-3.72,3.12-7.1,3.12Z"/><path class="cls-1" d="m187.63,39.64V.36h10.38c2.17,0,3.89.48,5.16,1.45,1.28.97,2.2,2.34,2.74,4.13.55,1.79.83,3.91.83,6.38s-.23,4.46-.69,6.23c-.46,1.76-1.29,3.12-2.48,4.08-1.18.97-2.85,1.45-5.02,1.45h-3.19v15.56h-7.72Zm7.72-22.61h.45c1.46,0,2.35-.41,2.68-1.23.33-.82.49-2.02.49-3.62,0-1.49-.16-2.63-.49-3.44-.31-.82-1.06-1.23-2.25-1.23h-.87v9.51Z"/><path class="cls-1" d="m209.24,39.64V.36h7.86v32.59h8.08v6.7h-15.94Z"/><path class="cls-1" d="m226.34,39.64L230.13.36h13.33l3.73,39.29h-7.43l-.56-6.34h-4.73l-.49,6.34h-7.63Zm8.68-12.61h3.57l-1.72-19.98h-.36l-1.5,19.98Z"/><path class="cls-1" d="m252.39,39.64V7.9h-4.66V.36h17.19v7.54h-4.67v31.74h-7.86Z"/><path class="cls-1" d="m276.43,40c-3.59,0-6.18-.89-7.77-2.68-1.58-1.79-2.37-4.63-2.37-8.53v-3.84h7.77v4.91c0,.91.13,1.62.4,2.14.28.51.77.76,1.45.76s1.21-.21,1.47-.62c.28-.42.42-1.1.42-2.05,0-1.21-.12-2.21-.36-3.01-.24-.82-.65-1.59-1.25-2.32-.58-.74-1.39-1.61-2.43-2.59l-3.53-3.35c-2.63-2.49-3.95-5.33-3.95-8.53s.77-5.9,2.32-7.66c1.56-1.76,3.82-2.63,6.76-2.63,3.6,0,6.15.96,7.66,2.88,1.52,1.92,2.28,4.84,2.28,8.75h-7.99v-2.7c0-.54-.16-.95-.47-1.25-.3-.3-.71-.45-1.23-.45-.62,0-1.09.18-1.38.54-.28.34-.42.79-.42,1.34s.15,1.15.45,1.79c.3.64.89,1.38,1.76,2.21l4.53,4.35c.91.86,1.74,1.78,2.5,2.75.76.95,1.37,2.07,1.83,3.35.46,1.26.69,2.81.69,4.64,0,3.69-.68,6.58-2.05,8.68-1.35,2.08-3.72,3.12-7.1,3.12Z"/><path class="cls-3" d="m313.6,5.99c-9.64,0-17.46,7.54-17.46,16.83s7.82,16.82,17.46,16.82,17.46-7.53,17.46-16.82-7.82-16.83-17.46-16.83Zm0,31.11c-8.33,0-14.92-6.48-14.92-14.28s6.59-14.29,14.92-14.29,14.92,6.49,14.92,14.29-6.59,14.28-14.92,14.28Z"/><path class="cls-2" d="m313.6,8.53c-8.33,0-14.92,6.49-14.92,14.29s6.59,14.28,14.92,14.28,14.92-6.48,14.92-14.28-6.59-14.29-14.92-14.29Zm0,26.03c-6.49,0-11.75-5.26-11.75-11.74s5.26-11.75,11.75-11.75,11.75,5.26,11.75,11.75-5.26,11.74-11.75,11.74Z"/><path class="cls-3" d="m313.6,11.07c-6.49,0-11.75,5.26-11.75,11.75s5.26,11.74,11.75,11.74,11.75-5.26,11.75-11.74-5.26-11.75-11.75-11.75Zm0,20.95c-5.08,0-9.21-4.12-9.21-9.2s4.13-9.21,9.21-9.21,9.21,4.12,9.21,9.21-4.13,9.2-9.21,9.2Z"/><path class="cls-2" d="m322.81,22.82c0,5.08-4.13,9.2-9.21,9.2s-9.21-4.12-9.21-9.2,4.13-9.21,9.21-9.21,9.21,4.12,9.21,9.21Z"/></svg>